<svg width="142" height="33" viewBox="0 0 142 33" fill="none" xmlns="http://www.w3.org/2000/svg">
<path d="M131.921 26.3878V6.5929H135.315V26.3878H131.921Z" fill="#46F9FE"/>
<path d="M113.025 26.3878L119.642 6.5929H124.732L131.293 26.3878H127.701L122.215 9.13795H122.131L116.56 26.3878H113.025ZM116.249 20.8452L117.154 18.187H126.91L127.814 20.8452H116.249Z" fill="#46F9FE"/>
<path d="M100.404 26.7271C99.066 26.7271 97.8594 26.416 96.7848 25.7939C95.7103 25.1718 94.8525 24.314 94.2115 23.2206C93.5894 22.1083 93.2783 20.8263 93.2783 19.3747C93.2783 17.9231 93.5894 16.6411 94.2115 15.5289C94.8525 14.4166 95.7103 13.5588 96.7848 12.9555C97.8783 12.3334 99.0942 12.0223 100.433 12.0223C101.79 12.0223 103.006 12.3334 104.081 12.9555C105.155 13.5588 106.004 14.4166 106.626 15.5289C107.267 16.6411 107.587 17.9231 107.587 19.3747C107.587 20.8263 107.267 22.1083 106.626 23.2206C106.004 24.314 105.146 25.1718 104.052 25.7939C102.978 26.416 101.762 26.7271 100.404 26.7271ZM100.404 23.8993C101.083 23.8993 101.696 23.7296 102.243 23.3902C102.808 23.0509 103.261 22.5513 103.6 21.8915C103.939 21.2128 104.109 20.3739 104.109 19.3747C104.109 18.3567 103.939 17.5178 103.6 16.8579C103.279 16.1793 102.836 15.6797 102.271 15.3592C101.705 15.0198 101.102 14.8502 100.461 14.8502C99.8012 14.8502 99.1885 15.0198 98.6229 15.3592C98.0574 15.6797 97.5955 16.1793 97.2373 16.8579C96.898 17.5178 96.7283 18.3567 96.7283 19.3747C96.7283 20.3739 96.898 21.2128 97.2373 21.8915C97.5955 22.5513 98.0479 23.0509 98.5947 23.3902C99.1602 23.7296 99.7635 23.8993 100.404 23.8993Z" fill="#46F9FE"/>
<path d="M69.3384 26.3878V12.3617H72.3076L72.5904 14.5957H72.6752C73.1277 13.7473 73.731 13.1063 74.485 12.6727C75.258 12.2391 76.144 12.0223 77.1432 12.0223C77.8407 12.0223 78.4817 12.126 79.0661 12.3334C79.6694 12.5219 80.1973 12.8141 80.6497 13.21C81.1022 13.6059 81.4698 14.1244 81.7526 14.7653H81.8374C82.3464 13.8981 83.0063 13.2289 83.8169 12.7576C84.6275 12.2674 85.5984 12.0223 86.7296 12.0223C87.8419 12.0223 88.7939 12.2674 89.5857 12.7576C90.3963 13.2289 91.0185 13.9453 91.4521 14.9067C91.8857 15.8493 92.1025 17.0182 92.1025 18.4133V26.3878H88.7373V18.7526C88.7373 17.5083 88.4923 16.5563 88.0021 15.8965C87.5119 15.2178 86.7579 14.8785 85.7398 14.8785C85.08 14.8785 84.4956 15.0293 83.9866 15.3309C83.4964 15.6325 83.1099 16.0756 82.8272 16.66C82.5444 17.2444 82.403 17.9702 82.403 18.8374V26.3878H79.0379V18.7526C79.0379 17.5083 78.7928 16.5563 78.3026 15.8965C77.8125 15.2178 77.0584 14.8785 76.0404 14.8785C75.4371 14.8785 74.8809 15.0481 74.3719 15.3875C73.8629 15.7268 73.4576 16.217 73.156 16.8579C72.8732 17.4801 72.7318 18.2436 72.7318 19.1485V26.3878H69.3384Z" fill="#46F9FE"/>
<path d="M63.761 26.3878V12.3617H67.1545V26.3878H63.761ZM65.4578 10.2126C64.8356 10.2126 64.3172 10.024 63.9024 9.64698C63.5065 9.26994 63.3086 8.78921 63.3086 8.20479C63.3086 7.63922 63.5065 7.16791 63.9024 6.79087C64.3172 6.39497 64.8356 6.19702 65.4578 6.19702C66.0799 6.19702 66.5889 6.39497 66.9848 6.79087C67.3995 7.16791 67.6069 7.63922 67.6069 8.20479C67.6069 8.77035 67.3995 9.25109 66.9848 9.64698C66.5889 10.024 66.0799 10.2126 65.4578 10.2126Z" fill="#46F9FE"/>
<path d="M45.521 26.3878V6.5929H49.6214L58.3594 21.7218H58.4442V6.5929H61.8376V26.3878H57.7373L48.9992 11.2871H48.9144V26.3878H45.521Z" fill="#46F9FE"/>
<path fill-rule="evenodd" clip-rule="evenodd" d="M19.4318 2.1188C19.4318 2.88689 18.9435 3.53434 18.2772 3.73283V7.65137H21.9736C22.8038 7.65137 23.6149 7.73299 24.3994 7.88863L35.5677 0.943115C35.5677 0.943115 35.5656 5.2103 34.9288 8.80155C34.4767 11.3512 33.5517 13.7552 33.1608 14.7023C33.9353 16.3205 34.369 18.133 34.369 20.0468C34.369 26.8925 28.8194 32.4422 21.9736 32.4422H13.8068C6.96099 32.4422 1.41138 26.8925 1.41138 20.0468C1.41138 18.1329 1.84513 16.3203 2.61969 14.702C2.22877 13.7547 1.30385 11.3509 0.851806 8.80155C0.21502 5.2103 0.212891 0.943115 0.212891 0.943115L11.3811 7.88859C12.1656 7.73297 12.9766 7.65137 13.8068 7.65137H17.4152V3.7327C16.7492 3.53407 16.261 2.88673 16.261 2.1188C16.261 1.19281 16.9708 0.442139 17.8464 0.442139C18.722 0.442139 19.4318 1.19281 19.4318 2.1188ZM13.8068 8.67808H21.9736C28.2524 8.67808 33.3423 13.768 33.3423 20.0468C33.3423 26.3255 28.2524 31.4154 21.9736 31.4154H13.8068C7.52803 31.4154 2.43809 26.3255 2.43809 20.0468C2.43809 13.768 7.52802 8.67808 13.8068 8.67808ZM15.1301 17.6675C15.3292 18.1388 15.4316 18.644 15.4316 19.1542H11.4709L7.51025 19.1542C7.51025 18.644 7.6127 18.1388 7.81174 17.6675C8.01079 17.1961 8.30253 16.7678 8.67031 16.4071C9.03809 16.0463 9.47472 15.7601 9.95525 15.5649C10.4358 15.3696 10.9508 15.2691 11.4709 15.2691C11.9911 15.2691 12.5061 15.3696 12.9866 15.5649C13.4672 15.7601 13.9038 16.0463 14.2716 16.4071C14.6393 16.7678 14.9311 17.1961 15.1301 17.6675ZM17.8352 23.3564L19.3249 20.7762C19.3527 20.728 19.3179 20.6678 19.2623 20.6678H16.1479C16.0923 20.6678 16.0576 20.728 16.0854 20.7762L17.5785 23.3623L17.5676 23.4453C17.5283 23.7447 17.318 24.071 16.9942 24.2842C16.6685 24.4987 16.2388 24.6221 15.7876 24.6264C15.3363 24.6308 14.9018 24.5159 14.5676 24.3075C14.2333 24.0992 14.0287 23.8164 13.9782 23.5192L13.9632 23.4309L13.8739 23.4386L13.8693 23.439L13.7641 23.4481L13.7818 23.5522C13.8438 23.9176 14.0913 24.2443 14.4616 24.4751C14.832 24.706 15.305 24.829 15.7895 24.8243C16.2741 24.8196 16.7424 24.6874 17.1043 24.4492C17.3979 24.2558 17.6168 23.9752 17.7155 23.6822C17.8287 23.965 18.0541 24.2335 18.3465 24.4158C18.7169 24.6466 19.1899 24.7696 19.6744 24.7649C20.159 24.7602 20.6274 24.6281 20.9892 24.3898C21.3512 24.1515 21.5865 23.8194 21.6346 23.4525L21.6481 23.3497L21.5446 23.3428L21.5401 23.3424L21.449 23.3364L21.4371 23.4269C21.3981 23.7244 21.2048 24.0104 20.8791 24.2249C20.5534 24.4393 20.1238 24.5627 19.6725 24.5671C19.2213 24.5715 18.7867 24.4565 18.4525 24.2482C18.1203 24.0411 17.896 23.7147 17.8452 23.4155L17.8352 23.3564ZM27.9826 17.6674C28.1816 18.1388 28.2841 18.644 28.2841 19.1542H24.3234L20.3627 19.1542C20.3627 18.644 20.4652 18.1388 20.6642 17.6674C20.8633 17.1961 21.155 16.7678 21.5228 16.407C21.8906 16.0463 22.3272 15.7601 22.8077 15.5648C23.2882 15.3696 23.8033 15.2691 24.3234 15.2691C24.8435 15.2691 25.3586 15.3696 25.8391 15.5648C26.3196 15.7601 26.7562 16.0463 27.124 16.407C27.4918 16.7678 27.7836 17.1961 27.9826 17.6674Z" fill="#46F9FE"/>
</svg>
