<svg width="142" height="33" viewBox="0 0 142 33" fill="none" xmlns="http://www.w3.org/2000/svg">
<path d="M131.921 26.5063V6.71143H135.315V26.5063H131.921Z" fill="#46F9FE"/>
<path d="M113.025 26.5063L119.642 6.71143H124.732L131.293 26.5063H127.701L122.215 9.25648H122.131L116.56 26.5063H113.025ZM116.249 20.9637L117.154 18.3056H126.91L127.815 20.9637H116.249Z" fill="#46F9FE"/>
<path d="M100.404 26.8454C99.066 26.8454 97.8594 26.5343 96.7848 25.9122C95.7103 25.2901 94.8525 24.4323 94.2115 23.3389C93.5894 22.2266 93.2783 20.9446 93.2783 19.493C93.2783 18.0414 93.5894 16.7594 94.2115 15.6471C94.8525 14.5349 95.7103 13.6771 96.7848 13.0738C97.8783 12.4517 99.0942 12.1406 100.433 12.1406C101.79 12.1406 103.006 12.4517 104.081 13.0738C105.155 13.6771 106.004 14.5349 106.626 15.6471C107.267 16.7594 107.587 18.0414 107.587 19.493C107.587 20.9446 107.267 22.2266 106.626 23.3389C106.004 24.4323 105.146 25.2901 104.052 25.9122C102.978 26.5343 101.762 26.8454 100.404 26.8454ZM100.404 24.0175C101.083 24.0175 101.696 23.8479 102.243 23.5085C102.808 23.1692 103.261 22.6696 103.6 22.0098C103.939 21.3311 104.109 20.4922 104.109 19.493C104.109 18.475 103.939 17.6361 103.6 16.9762C103.279 16.2975 102.836 15.798 102.271 15.4775C101.705 15.1381 101.102 14.9685 100.461 14.9685C99.8012 14.9685 99.1885 15.1381 98.6229 15.4775C98.0574 15.798 97.5955 16.2975 97.2373 16.9762C96.898 17.6361 96.7283 18.475 96.7283 19.493C96.7283 20.4922 96.898 21.3311 97.2373 22.0098C97.5955 22.6696 98.0479 23.1692 98.5947 23.5085C99.1602 23.8479 99.7635 24.0175 100.404 24.0175Z" fill="#46F9FE"/>
<path d="M69.3385 26.506V12.48H72.3077L72.5905 14.714H72.6753C73.1278 13.8656 73.7311 13.2246 74.4852 12.791C75.2581 12.3574 76.1442 12.1406 77.1433 12.1406C77.8409 12.1406 78.4818 12.2443 79.0663 12.4517C79.6695 12.6402 80.1974 12.9324 80.6498 13.3283C81.1023 13.7242 81.4699 14.2427 81.7527 14.8836H81.8375C82.3466 14.0164 83.0064 13.3472 83.817 12.8759C84.6277 12.3857 85.5986 12.1406 86.7297 12.1406C87.842 12.1406 88.794 12.3857 89.5858 12.8759C90.3965 13.3472 91.0186 14.0636 91.4522 15.025C91.8858 15.9676 92.1026 17.1365 92.1026 18.5315V26.506H88.7375V18.8709C88.7375 17.6266 88.4924 16.6746 88.0022 16.0148C87.5121 15.3361 86.758 14.9967 85.74 14.9967C85.0801 14.9967 84.4957 15.1476 83.9867 15.4492C83.4965 15.7508 83.1101 16.1939 82.8273 16.7783C82.5445 17.3627 82.4031 18.0885 82.4031 18.9557V26.506H79.038V18.8709C79.038 17.6266 78.7929 16.6746 78.3027 16.0148C77.8126 15.3361 77.0585 14.9967 76.0405 14.9967C75.4372 14.9967 74.8811 15.1664 74.372 15.5058C73.863 15.8451 73.4577 16.3352 73.1561 16.9762C72.8733 17.5984 72.7319 18.3619 72.7319 19.2668V26.506H69.3385Z" fill="#46F9FE"/>
<path d="M63.761 26.5062V12.4801H67.1545V26.5062H63.761ZM65.4578 10.331C64.8356 10.331 64.3172 10.1424 63.9024 9.76539C63.5065 9.38835 63.3086 8.90761 63.3086 8.32319C63.3086 7.75763 63.5065 7.28632 63.9024 6.90928C64.3172 6.51338 64.8356 6.31543 65.4578 6.31543C66.0799 6.31543 66.5889 6.51338 66.9848 6.90928C67.3995 7.28632 67.6069 7.75763 67.6069 8.32319C67.6069 8.88876 67.3995 9.36949 66.9848 9.76539C66.5889 10.1424 66.0799 10.331 65.4578 10.331Z" fill="#46F9FE"/>
<path d="M45.521 26.5063V6.71143H49.6214L58.3594 21.8404H58.4442V6.71143H61.8376V26.5063H57.7373L48.9992 11.4056H48.9144V26.5063H45.521Z" fill="#46F9FE"/>
<path fill-rule="evenodd" clip-rule="evenodd" d="M19.4318 2.23721C19.4318 3.00529 18.9435 3.65275 18.2772 3.85124V7.76978H21.9736C22.8038 7.76978 23.6149 7.85139 24.3994 8.00704L35.5677 1.06152C35.5677 1.06152 35.5656 5.32871 34.9288 8.91996C34.4767 11.4696 33.5517 13.8736 33.1608 14.8207C33.9353 16.439 34.369 18.2514 34.369 20.1652C34.369 27.011 28.8194 32.5606 21.9736 32.5606H13.8068C6.96099 32.5606 1.41138 27.011 1.41138 20.1652C1.41138 18.2513 1.84513 16.4387 2.61969 14.8204C2.22877 13.8731 1.30385 11.4693 0.851806 8.91996C0.21502 5.32871 0.212891 1.06152 0.212891 1.06152L11.3811 8.007C12.1656 7.85138 12.9766 7.76978 13.8068 7.76978H17.4152V3.85111C16.7492 3.65248 16.261 3.00513 16.261 2.23721C16.261 1.31121 16.9708 0.560547 17.8464 0.560547C18.722 0.560547 19.4318 1.31121 19.4318 2.23721ZM13.8068 8.79649H21.9736C28.2524 8.79649 33.3423 13.8864 33.3423 20.1652C33.3423 26.4439 28.2524 31.5338 21.9736 31.5338H13.8068C7.52803 31.5338 2.43809 26.4439 2.43809 20.1652C2.43809 13.8864 7.52802 8.79649 13.8068 8.79649ZM15.1301 17.7859C15.3292 18.2572 15.4316 18.7625 15.4316 19.2726H11.4709L7.51025 19.2726C7.51025 18.7625 7.6127 18.2572 7.81174 17.7859C8.01079 17.3145 8.30253 16.8862 8.67031 16.5255C9.03809 16.1647 9.47472 15.8785 9.95525 15.6833C10.4358 15.488 10.9508 15.3876 11.4709 15.3876C11.9911 15.3876 12.5061 15.488 12.9866 15.6833C13.4672 15.8785 13.9038 16.1647 14.2716 16.5255C14.6393 16.8862 14.9311 17.3145 15.1301 17.7859ZM17.8352 23.4748L19.3249 20.8946C19.3527 20.8464 19.3179 20.7862 19.2623 20.7862H16.1479C16.0923 20.7862 16.0576 20.8464 16.0854 20.8946L17.5785 23.4807L17.5676 23.5637C17.5283 23.8631 17.318 24.1894 16.9942 24.4026C16.6685 24.6171 16.2388 24.7405 15.7876 24.7449C15.3363 24.7492 14.9018 24.6343 14.5676 24.4259C14.2333 24.2176 14.0287 23.9348 13.9782 23.6376L13.9632 23.5493L13.8739 23.557L13.8693 23.5574L13.7641 23.5665L13.7818 23.6706C13.8438 24.036 14.0913 24.3627 14.4616 24.5935C14.832 24.8244 15.305 24.9474 15.7895 24.9427C16.2741 24.938 16.7424 24.8059 17.1043 24.5676C17.3979 24.3742 17.6168 24.0936 17.7155 23.8006C17.8287 24.0835 18.0541 24.3519 18.3465 24.5342C18.7169 24.7651 19.1899 24.888 19.6744 24.8833C20.159 24.8786 20.6274 24.7465 20.9892 24.5082C21.3512 24.2699 21.5865 23.9378 21.6346 23.5709L21.6481 23.4681L21.5446 23.4612L21.5401 23.4609L21.449 23.4548L21.4371 23.5453C21.3981 23.8428 21.2048 24.1289 20.8791 24.3433C20.5534 24.5577 20.1238 24.6811 19.6725 24.6855C19.2213 24.6899 18.7867 24.5749 18.4525 24.3666C18.1203 24.1595 17.896 23.8331 17.8452 23.5339L17.8352 23.4748ZM27.9826 17.7859C28.1816 18.2572 28.2841 18.7624 28.2841 19.2726H24.3234L20.3627 19.2726C20.3627 18.7624 20.4652 18.2572 20.6642 17.7859C20.8633 17.3145 21.155 16.8862 21.5228 16.5254C21.8906 16.1647 22.3272 15.8785 22.8077 15.6833C23.2882 15.488 23.8033 15.3875 24.3234 15.3875C24.8435 15.3875 25.3586 15.488 25.8391 15.6833C26.3196 15.8785 26.7562 16.1647 27.124 16.5254C27.4918 16.8862 27.7836 17.3145 27.9826 17.7859Z" fill="#46F9FE"/>
</svg>
